# xmcd CD database file generated by Grip 3.2.0
# 
# Track frame offsets:
#       150
#       19711
#       39529
#       54149
#       63077
#       72205
#       86122
#       104440
#       117167
#       134825
#       141184
#       155981
#       162282
#       179720
#       191212
#       205574
#       224445
#       238431
#       245379
# 
# Disc length: 3465 seconds
# 
# Revision: 1
# Processed by: cddbd v1.5.1PL2 Copyright (c) Steve Scherf et al.
# Submitted via: Grip 3.2.0
# 
DISCID=230d8713
DTITLE=Various Artist - 1. velký trampský zpěvník  Geo - Cha
DYEAR=2005
DGENRE=Country
TTITLE0=Georgia
TTITLE1=Hej hoši, hej
TTITLE2=Hej, kočí
TTITLE3=Hejkal
TTITLE4=Hejno vran
TTITLE5=Hledám devče na neděli
TTITLE6=Hoj, trampové
TTITLE7=Hola ria hou
TTITLE8=Honák
TTITLE9=Hop tam s jednou
TTITLE10=Hořící prérie
TTITLE11=Hospůdka
TTITLE12=Houpy hou
TTITLE13=Hudsonské šífy
TTITLE14=Hvězda Loo
TTITLE15=Hvězdička zbloudilá
TTITLE16=Chajda malá
TTITLE17=Chata má je vzdálená
TTITLE18=Chata na vodě
EXTD=Vložila Agina
EXTT0=
EXTT1=
EXTT2=
EXTT3=
EXTT4=
EXTT5=
EXTT6=
EXTT7=
EXTT8=
EXTT9=
EXTT10=
EXTT11=
EXTT12=
EXTT13=
EXTT14=
EXTT15=
EXTT16=
EXTT17=
EXTT18=
PLAYORDER=
